<svg xmlns="http://www.w3.org/2000/svg" width="70.221" height="70.649" viewBox="0 0 70.221 70.649">
  <defs>
    <style>
      .cls-1 {
        fill: #fff;
      }
    </style>
  </defs>
  <g id="Group_36" data-name="Group 36" transform="translate(-1658.792 -989.579)">
    <path id="Path_6" data-name="Path 6" class="cls-1" d="M1693.874,1042.6c-8.658,0-23.311-3.863-23.311-29.439a23.287,23.287,0,0,1,34.1-20.914l2,1.2a2.971,2.971,0,0,1,.8,4.129,2.839,2.839,0,0,1-4,.8c-.533-.267-.932-.533-1.465-.8a17.065,17.065,0,0,0-8.126-2,17.567,17.567,0,0,0-17.583,17.584c0,15.852,5.728,23.578,17.583,23.578s17.584-7.726,17.584-23.578a17.059,17.059,0,0,0-1.2-6.394,3.111,3.111,0,0,1,1.6-3.863,2.9,2.9,0,0,1,3.73,1.6,23.776,23.776,0,0,1,1.6,8.659c0,25.576-14.653,29.439-23.312,29.439"/>
    <path id="Path_7" data-name="Path 7" class="cls-1" d="M1725.977,1060.179a2.78,2.78,0,0,1-2.664-1.732c-1.865-4.4-10.923-15.851-20.647-15.851h-17.583c-9.725,0-18.783,11.456-20.648,15.851a2.956,2.956,0,1,1-5.461-2.264c2.4-5.728,13.321-19.448,26.109-19.448h17.583c12.788,0,23.711,13.72,26.109,19.448a2.987,2.987,0,0,1-1.6,3.863c-.4,0-.8.133-1.2.133"/>
    <path id="Path_8" data-name="Path 8" class="cls-1" d="M1693.874,1054.318c-9.857,0-17.583-5.195-17.583-11.722a2.93,2.93,0,1,1,5.861,0c0,2.8,5.062,5.861,11.722,5.861a21.114,21.114,0,0,0,5.062-.666,13.39,13.39,0,0,0,4.4-2,4.382,4.382,0,0,0,2.131-3.33,2.931,2.931,0,1,1,5.862,0c0,3.063-1.6,5.861-4.663,8.125a20.92,20.92,0,0,1-6.261,2.931,25.764,25.764,0,0,1-6.527.8"/>
    <path id="Path_9" data-name="Path 9" class="cls-1" d="M1702.666,1016.087a2.93,2.93,0,1,1-2.931-2.93,2.957,2.957,0,0,1,2.931,2.93"/>
    <path id="Path_10" data-name="Path 10" class="cls-1" d="M1690.944,1016.087a2.93,2.93,0,1,1-2.931-2.93,2.957,2.957,0,0,1,2.931,2.93"/>
  </g>
</svg>
