<svg xmlns="http://www.w3.org/2000/svg" width="41.73" height="61.991" viewBox="0 0 41.73 61.991">
  <defs>
    <style>
      .cls-1 {
        fill: #fff;
      }
    </style>
  </defs>
  <g id="Group_37" data-name="Group 37" transform="translate(-2048.831 -1000.59)">
    <path id="Path_22" data-name="Path 22" class="cls-1" d="M2069.629,1052.25a20.627,20.627,0,0,1-13.016-36.766v-7.112a7.788,7.788,0,0,1,7.783-7.782h10.466a7.788,7.788,0,0,1,7.782,7.782v8.454a2.6,2.6,0,0,1-1.342,2.281,2.743,2.743,0,0,1-2.683-.134,14.813,14.813,0,0,0-8.856-2.818,15.431,15.431,0,1,0,15.565,15.431,12.96,12.96,0,0,0-.537-3.892c-.134-.4-.268-.939-.4-1.341a2.631,2.631,0,1,1,4.964-1.745,8.617,8.617,0,0,1,.537,1.745,21.206,21.206,0,0,1,.671,5.1,20.931,20.931,0,0,1-20.932,20.8Zm-5.233-46.427a2.548,2.548,0,0,0-2.55,2.549v4.026a21.478,21.478,0,0,1,15.565,0v-4.026a2.547,2.547,0,0,0-2.549-2.549Z"/>
    <path id="Path_23" data-name="Path 23" class="cls-1" d="M2074.862,1062.581H2064.4a7.788,7.788,0,0,1-7.783-7.782v-7.783a2.548,2.548,0,0,1,2.55-2.549,2.639,2.639,0,0,1,2.549,2.549v7.783a2.548,2.548,0,0,0,2.55,2.549h10.466a2.547,2.547,0,0,0,2.549-2.549v-7.783a2.548,2.548,0,0,1,2.55-2.549,2.639,2.639,0,0,1,2.549,2.549v7.783a7.4,7.4,0,0,1-7.514,7.782"/>
    <path id="Path_24" data-name="Path 24" class="cls-1" d="M2074.862,1039.368a2.65,2.65,0,0,1-1.879-.805l-5.233-5.1a2.433,2.433,0,0,1-.8-1.878V1023.8a2.548,2.548,0,0,1,2.55-2.549,2.639,2.639,0,0,1,2.549,2.549v6.709l4.428,4.428a2.44,2.44,0,0,1,0,3.623,1.755,1.755,0,0,1-1.61.805"/>
  </g>
</svg>
