<svg xmlns="http://www.w3.org/2000/svg" width="61.816" height="61.816" viewBox="0 0 61.816 61.816">
  <defs>
    <style>
      .cls-1 {
        fill: #fff;
      }
    </style>
  </defs>
  <g id="Group_38" data-name="Group 38" transform="translate(-1672.428 -1315.616)">
    <path id="Path_11" data-name="Path 11" class="cls-1" d="M1690.411,1323.343h25.71v5.2h-25.71Z"/>
    <path id="Path_12" data-name="Path 12" class="cls-1" d="M1734.244,1331.07a2.529,2.529,0,1,1-5.058,0,2.519,2.519,0,0,0-2.529-2.529h-7.867v-5.2h7.727a7.8,7.8,0,0,1,7.727,7.727"/>
    <path id="Path_13" data-name="Path 13" class="cls-1" d="M1734.244,1341.326V1369.7a7.8,7.8,0,0,1-7.727,7.727h-46.362a7.8,7.8,0,0,1-7.727-7.727V1331.07a7.8,7.8,0,0,1,7.727-7.727h7.727v5.2h-7.727a2.519,2.519,0,0,0-2.529,2.529V1369.7a2.519,2.519,0,0,0,2.529,2.529h46.362a2.519,2.519,0,0,0,2.529-2.529v-28.379a2.519,2.519,0,0,1,2.529-2.529,2.553,2.553,0,0,1,2.669,2.529"/>
    <path id="Path_14" data-name="Path 14" class="cls-1" d="M1689.146,1315.616a6.537,6.537,0,0,0-6.462,6.463v7.727a6.463,6.463,0,0,0,12.925,0v-7.727a6.537,6.537,0,0,0-6.463-6.463Zm1.265,14.19a1.265,1.265,0,0,1-2.529,0v-7.727a1.265,1.265,0,1,1,2.529,0v7.727Z"/>
    <path id="Path_15" data-name="Path 15" class="cls-1" d="M1717.525,1315.616a6.536,6.536,0,0,0-6.462,6.463v7.727a6.463,6.463,0,0,0,12.925,0v-7.727a6.537,6.537,0,0,0-6.463-6.463Zm1.265,14.19a1.265,1.265,0,0,1-2.529,0v-7.727a1.265,1.265,0,1,1,2.529,0v7.727Z"/>
    <path id="Path_16" data-name="Path 16" class="cls-1" d="M1723.988,1361.978h-41.164a2.529,2.529,0,0,1,0-5.058h41.164a2.529,2.529,0,0,1,0,5.058"/>
    <path id="Path_17" data-name="Path 17" class="cls-1" d="M1723.988,1346.524h-41.164a2.529,2.529,0,0,1,0-5.058h41.164a2.529,2.529,0,0,1,0,5.058"/>
    <path id="Path_18" data-name="Path 18" class="cls-1" d="M1693.08,1369.7a2.518,2.518,0,0,1-2.529-2.529v-23.181a2.529,2.529,0,1,1,5.058,0v23.181a2.518,2.518,0,0,1-2.529,2.529"/>
    <path id="Path_19" data-name="Path 19" class="cls-1" d="M1713.592,1369.7a2.518,2.518,0,0,1-2.529-2.529v-23.181a2.529,2.529,0,1,1,5.058,0v23.181a2.435,2.435,0,0,1-2.529,2.529"/>
  </g>
</svg>
