<svg xmlns="http://www.w3.org/2000/svg" width="75.169" height="58.521" viewBox="0 0 75.169 58.521">
  <g id="Group_36" data-name="Group 36" transform="translate(-1833.416 -27.839)">
    <path id="Path_5" data-name="Path 5" d="M1837.243,29.393l31.71,56.435a1.042,1.042,0,0,0,1.8.034l33.986-55.4a1.043,1.043,0,0,0-.873-1.588l-65.7-1.032A1.043,1.043,0,0,0,1837.243,29.393Zm15.713,8.145,36.118.567a.935.935,0,0,1,.782,1.424l-18.685,30.459a.934.934,0,0,1-1.611-.031l-17.434-31.026A.935.935,0,0,1,1852.956,37.538Z" fill="#c1272d"/>
    <rect id="Rectangle_8" data-name="Rectangle 8" width="75.169" height="13.322" rx="1.361" transform="translate(1833.416 50.438)" fill="#580259"/>
    <text id="YMCA" transform="translate(1856.286 62.011)" fill="#f2f2f2" font-size="11.627" font-family="SegoeUI, Segoe UI"><tspan x="0" y="0">YMCA</tspan></text>
  </g>
</svg>
